<?xml version="1.0" standalone="no"?>
<!DOCTYPE svg PUBLIC "-//W3C//DTD SVG 20010904//EN"
 "http://www.w3.org/TR/2001/REC-SVG-20010904/DTD/svg10.dtd">
<svg version="1.0" xmlns="http://www.w3.org/2000/svg"
 width="298.000000pt" height="615.000000pt" viewBox="0 0 298.000000 615.000000"
 preserveAspectRatio="xMidYMid meet">

<g transform="translate(0.000000,615.000000) scale(0.100000,-0.100000)"
fill="#000000" stroke="none">
<path d="M0 3075 l0 -3075 1490 0 1490 0 0 3075 0 3075 -1490 0 -1490 0 0
-3075z m2333 2968 c42 -45 151 -174 222 -263 28 -34 62 -76 78 -94 82 -92 178
-217 175 -226 -2 -6 -89 92 -193 217 -105 125 -210 249 -234 275 l-44 48 -851
0 -851 0 -36 -33 c-20 -17 -118 -136 -217 -262 -158 -203 -238 -297 -207 -245
5 8 40 54 77 103 70 89 85 108 126 155 31 36 129 163 169 218 18 25 48 64 67
87 l35 42 178 5 c98 3 469 7 825 8 l646 4 35 -39z m-256 -309 c-3 -3 -12 -4
-19 -1 -8 3 -5 6 6 6 11 1 17 -2 13 -5z m228 -54 c12 -5 -50 -9 -159 -9 -99
-1 -177 -3 -174 -6 2 -3 72 -6 154 -6 l149 -2 186 -191 c281 -288 291 -302
249 -328 -11 -7 -20 -18 -20 -25 0 -7 -3 -13 -6 -13 -6 0 -57 39 -85 65 -9 8
-21 15 -27 15 -7 0 -12 6 -12 13 0 8 -17 29 -37 48 -97 87 -269 244 -273 250
-11 14 -51 30 -60 24 -17 -11 -11 -25 11 -25 13 0 19 -5 16 -13 -2 -6 42 -55
98 -107 56 -52 109 -106 118 -120 14 -23 65 -76 124 -132 28 -26 17 -45 -33
-54 -19 -3 -37 -10 -40 -15 -3 -5 -15 -9 -26 -9 -12 0 -18 -3 -15 -6 9 -9
-155 -87 -238 -113 -91 -29 -235 -100 -235 -116 0 -21 -31 -29 -103 -26 -41 1
-75 -3 -83 -10 -9 -7 -14 -8 -14 -1 0 7 -115 10 -340 11 -261 1 -340 -1 -340
-11 0 -9 -3 -9 -12 0 -7 7 -20 12 -30 12 -11 0 -18 7 -18 20 0 11 -8 23 -17
26 -10 3 -25 10 -33 15 -23 14 -55 27 -76 31 -11 2 -22 6 -25 11 -6 8 -103 38
-131 40 -10 1 -18 5 -18 9 0 4 -4 8 -9 8 -5 0 -47 17 -93 39 -45 21 -113 52
-151 69 -37 17 -67 36 -67 42 0 7 27 37 61 68 33 31 68 70 76 87 9 16 64 77
124 135 60 58 109 111 109 118 0 6 -9 12 -21 12 -23 0 -169 -136 -169 -157 0
-7 -6 -13 -12 -13 -7 0 -71 -56 -141 -124 l-128 -123 -30 29 c-16 16 -29 33
-29 36 0 14 149 186 305 352 33 36 67 75 75 86 35 49 86 59 298 56 13 0 21 3
17 6 -7 7 -27 9 -180 13 -60 2 122 6 405 9 872 9 1114 9 1135 0z m-1015 -1575
c0 -12 5 -26 12 -33 10 -9 9 -16 -4 -28 -14 -14 -15 -13 -10 12 3 19 1 25 -7
20 -9 -6 -10 0 -5 20 5 20 4 25 -5 20 -15 -10 -8 -133 8 -149 6 -6 11 -16 11
-21 -1 -19 -40 39 -40 58 0 20 0 20 -15 0 -16 -22 -20 -84 -5 -84 6 0 10 -8
10 -17 0 -25 -18 -3 -29 35 -7 24 -5 39 9 66 10 20 21 48 24 63 13 51 30 83
38 70 4 -7 8 -21 8 -32z m-106 -222 c-2 -72 -2 -73 -12 -73 -10 0 -9 101 1
118 5 6 9 12 10 12 1 0 1 -26 1 -57z m76 -8 c-7 -9 -15 -13 -19 -10 -3 3 1 10
9 15 21 14 24 12 10 -5z m-128 -35 c-3 -18 0 -30 7 -30 6 0 11 -7 11 -17 0
-14 -2 -14 -20 2 -22 20 -27 61 -7 68 6 3 12 6 13 6 0 1 -1 -12 -4 -29z m91
-53 c-7 -11 -9 -7 -17 28 l-6 30 14 -25 c8 -14 12 -28 9 -33z m-146 -6 c0 -20
-4 -28 -14 -24 -14 6 -16 14 -7 37 10 25 21 18 21 -13z m113 -15 c0 -3 -4 -8
-10 -11 -5 -3 -10 -1 -10 4 0 6 5 11 10 11 6 0 10 -2 10 -4z m-170 -36 c0 -11
-4 -20 -10 -20 -5 0 -10 9 -10 20 0 11 5 20 10 20 6 0 10 -9 10 -20z m-60 -46
c0 -8 -4 -12 -10 -9 -5 3 -10 10 -10 16 0 5 5 9 10 9 6 0 10 -7 10 -16z m150
12 c0 -3 -4 -8 -10 -11 -5 -3 -10 -1 -10 4 0 6 5 11 10 11 6 0 10 -2 10 -4z
m-200 -46 c0 -5 -4 -10 -10 -10 -5 0 -10 5 -10 10 0 6 5 10 10 10 6 0 10 -4
10 -10z m451 -22 c32 -18 59 -36 59 -39 0 -3 -60 -39 -132 -79 -73 -40 -137
-80 -143 -89 -5 -9 -12 -56 -15 -105 l-5 -88 -90 -52 -90 -51 -3 -178 c-1 -97
-6 -177 -10 -177 -4 1 -32 16 -62 34 l-55 32 -3 275 -2 275 72 41 c185 105
413 232 416 233 2 0 30 -15 63 -32z m564 -105 l245 -137 -2 -275 -3 -276 -60
-32 c-33 -18 -63 -33 -67 -33 -4 0 -9 80 -10 178 l-3 177 -87 50 -88 49 0 86
c0 59 -5 92 -15 107 -8 11 -73 53 -145 93 -71 40 -130 75 -130 80 0 5 105 68
117 70 2 0 113 -62 248 -137z m-1057 90 c2 -8 -6 -13 -22 -13 -17 0 -26 5 -26
16 0 19 41 16 48 -3z m-71 -39 c-3 -3 -12 -4 -19 -1 -8 3 -5 6 6 6 11 1 17 -2
13 -5z m830 -95 c69 -39 135 -76 145 -83 25 -15 22 -109 -4 -114 -9 -2 -70 27
-135 64 -75 43 -129 67 -148 67 -18 0 -77 -27 -148 -67 -135 -76 -150 -76
-145 1 l3 44 140 79 c77 43 146 79 153 79 6 1 69 -31 139 -70z m-960 19 c-3
-8 -6 -5 -6 6 -1 11 2 17 5 13 3 -3 4 -12 1 -19z m138 2 c3 -5 1 -10 -4 -10
-6 0 -11 5 -11 10 0 6 2 10 4 10 3 0 8 -4 11 -10z m1645 -30 c0 -5 -2 -10 -4
-10 -3 0 -8 5 -11 10 -3 6 -1 10 4 10 6 0 11 -4 11 -10z m-862 -166 c53 -31
99 -57 100 -59 6 -5 -184 -95 -199 -94 -8 0 -57 22 -109 48 l-95 49 39 23 c69
42 151 87 159 88 4 0 52 -24 105 -55z m687 -64 c3 -5 1 -10 -4 -10 -6 0 -11 5
-11 10 0 6 2 10 4 10 3 0 8 -4 11 -10z m-934 -145 l150 -76 57 27 c31 15 101
49 155 75 l97 49 0 -60 0 -60 -155 -77 -155 -78 -155 80 -155 80 0 58 c0 31 2
57 5 57 3 0 73 -34 156 -75z m-211 -101 c0 -91 4 -173 10 -183 5 -10 76 -56
159 -102 l149 -84 12 -80 c22 -156 29 -158 55 -14 l17 96 135 74 c198 109 183
86 183 284 0 91 3 165 8 165 4 0 32 -15 62 -33 l55 -33 3 -271 2 -271 -147
-83 c-82 -45 -190 -107 -241 -136 -52 -29 -100 -53 -107 -53 -7 0 -60 26 -117
59 -56 32 -165 93 -241 136 l-137 77 2 270 3 271 60 38 c33 21 63 38 68 38 4
1 7 -74 7 -165z m1338 128 c2 -7 -3 -12 -12 -12 -9 0 -16 7 -16 16 0 17 22 14
28 -4z m-1132 -257 c79 -41 150 -75 159 -75 8 0 78 32 155 70 77 39 142 70
145 70 4 0 5 -23 3 -51 l-3 -51 -152 -84 -151 -84 -156 87 -156 87 0 53 c0 29
3 53 6 53 4 0 71 -34 150 -75z m1014 -234 c0 -6 -4 -13 -10 -16 -5 -3 -10 1
-10 9 0 9 5 16 10 16 6 0 10 -4 10 -9z m-1080 -331 c0 -5 -4 -10 -10 -10 -5 0
-10 5 -10 10 0 6 5 10 10 10 6 0 10 -4 10 -10z m645 -20 c3 -5 1 -10 -4 -10
-6 0 -11 5 -11 10 0 6 2 10 4 10 3 0 8 -4 11 -10z m215 -7 c0 -2 -7 -11 -15
-19 -13 -14 -15 -13 -15 10 0 18 4 24 15 20 8 -4 15 -8 15 -11z m250 -173 c0
-5 -5 -10 -11 -10 -5 0 -7 5 -4 10 3 6 8 10 11 10 2 0 4 -4 4 -10z m-56 -51
c-8 -14 -24 -10 -24 6 0 9 6 12 15 9 8 -4 12 -10 9 -15z m-141 -47 c3 -15 1
-22 -6 -19 -7 2 -14 12 -16 23 -2 10 -8 22 -13 25 -6 4 -7 12 -3 19 8 14 29
-12 38 -48z m92 12 c22 -9 7 -26 -16 -19 -11 4 -19 2 -19 -4 0 -6 -4 -11 -9
-11 -4 0 -3 18 3 40 9 35 11 38 18 20 4 -11 14 -23 23 -26z m-165 -42 c0 -15
-2 -15 -10 -2 -13 20 -13 33 0 25 6 -3 10 -14 10 -23z m144 -41 c-3 -28 -10
-48 -15 -45 -5 3 -6 17 -3 31 5 18 3 24 -5 19 -16 -10 -14 6 5 32 22 32 26 23
18 -37z m-507 -38 c-16 -15 -34 7 -29 37 l5 32 15 -31 c8 -18 12 -34 9 -38z
m443 37 c0 -4 -6 -10 -14 -13 -9 -4 -13 2 -13 19 0 20 2 22 13 13 8 -6 14 -15
14 -19z m-98 -2 c-7 -7 -12 -8 -12 -2 0 6 3 14 7 17 3 4 9 5 12 2 2 -3 -1 -11
-7 -17z m45 0 c-3 -8 -6 -5 -6 6 -1 11 2 17 5 13 3 -3 4 -12 1 -19z m-97 -28
c0 -5 -5 -10 -11 -10 -5 0 -7 5 -4 10 3 6 8 10 11 10 2 0 4 -4 4 -10z m94 -5
c-4 -8 -8 -15 -10 -15 -2 0 -4 7 -4 15 0 8 4 15 10 15 5 0 7 -7 4 -15z m33
-32 c-3 -10 -5 -4 -5 12 0 17 2 24 5 18 2 -7 2 -21 0 -30z m48 17 c-3 -11 -2
-20 3 -20 5 0 7 -12 4 -27 l-6 -28 -8 34 c-9 32 -5 61 7 61 4 0 3 -9 0 -20z
m-325 -22 c0 -5 -4 -8 -10 -8 -5 0 -10 10 -10 23 0 18 2 19 10 7 5 -8 10 -18
10 -22z m363 -18 c3 -11 1 -18 -4 -14 -5 3 -9 12 -9 20 0 20 7 17 13 -6z m14
-52 c-3 -8 -6 -5 -6 6 -1 11 2 17 5 13 3 -3 4 -12 1 -19z m-1060 -200 c-3 -8
-6 -5 -6 6 -1 11 2 17 5 13 3 -3 4 -12 1 -19z m662 -220 c71 -2 85 -5 89 -20
5 -20 22 -24 23 -5 0 6 4 2 9 -10 6 -15 15 -21 25 -17 10 4 15 0 15 -11 0 -10
5 -15 14 -12 7 3 19 0 25 -6 8 -8 11 -7 12 3 0 9 4 7 8 -5 5 -11 12 -20 17
-21 29 -2 81 -24 186 -76 65 -32 123 -58 127 -58 5 0 11 -7 15 -15 3 -8 9 -14
13 -13 19 5 113 -32 113 -44 0 -10 -58 -72 -256 -271 -96 -95 -120 -126 -115
-140 6 -17 13 -14 61 26 30 25 67 58 82 74 14 15 39 38 55 51 29 24 73 65 201
184 70 66 92 80 92 57 0 -6 10 -19 21 -28 20 -16 21 -19 6 -47 -13 -25 -152
-175 -397 -425 l-45 -46 -134 -2 c-74 0 -137 -3 -139 -6 -3 -3 69 -5 159 -6
106 0 157 -4 144 -9 -19 -9 -1645 -2 -1654 6 -2 2 76 4 174 4 98 0 176 2 174
4 -8 8 -93 14 -204 15 -127 1 -105 -12 -251 147 -183 199 -276 307 -287 331
-9 21 -8 27 10 41 11 10 23 24 25 32 3 10 44 -23 129 -106 296 -288 313 -304
336 -304 13 0 23 3 23 8 0 4 -48 55 -106 112 -58 58 -116 121 -129 140 -12 19
-51 64 -85 100 l-62 64 54 26 c106 50 274 124 313 136 127 41 255 94 256 106
1 4 2 14 3 21 2 18 487 27 855 15z m-1506 -915 c107 -137 208 -260 224 -276
l29 -27 859 2 859 3 139 165 c77 91 180 213 230 273 50 59 92 105 95 102 9 -8
-26 -54 -156 -204 -26 -30 -78 -93 -117 -141 -136 -169 -216 -260 -237 -271
-17 -9 -224 -10 -823 -6 -440 4 -809 9 -820 12 -11 4 -44 39 -73 78 -66 91
-117 156 -269 346 -113 140 -150 191 -140 191 3 0 93 -111 200 -247z m500 -40
c-18 -2 -48 -2 -65 0 -18 2 -4 4 32 4 36 0 50 -2 33 -4z"/>
<path d="M810 5630 c11 -7 5 -8 -19 -3 -26 5 -33 3 -29 -8 4 -12 96 -14 574
-17 500 -3 684 1 672 13 -8 8 -143 16 -268 15 -74 0 -254 -1 -399 -1 -146 -1
-276 -5 -289 -10 -15 -6 -29 -6 -36 0 -7 6 -32 8 -56 5 -60 -8 -98 -6 -120 6
-25 14 -50 13 -30 0z"/>
<path d="M2106 5633 c-4 -4 -13 -8 -19 -9 -7 0 -25 -2 -42 -3 -30 -3 -30 -3
-5 -11 36 -12 138 -12 145 0 4 6 -8 10 -30 10 -22 0 -34 4 -30 10 7 12 -8 14
-19 3z"/>
<path d="M758 544 c-5 -4 -8 -13 -8 -21 0 -16 71 -18 87 -2 7 7 30 11 52 10
66 -3 84 -3 116 -1 28 2 105 -6 132 -15 6 -2 14 -1 17 3 11 10 48 13 42 3 -4
-6 24 -8 66 -5 75 4 211 4 474 1 103 -1 155 2 162 9 8 9 3 13 -17 16 -51 8
-1116 10 -1123 2z"/>
<path d="M1920 532 c0 -4 16 -6 35 -4 19 2 35 6 35 8 0 2 -16 4 -35 4 -19 0
-35 -4 -35 -8z"/>
<path d="M2034 530 c16 -5 33 -7 38 -4 5 3 15 0 23 -6 10 -8 15 -9 15 -2 0 6
17 13 38 15 20 2 -3 4 -53 4 -66 1 -82 -1 -61 -7z"/>
<path d="M1138 483 c6 -2 18 -2 25 0 6 3 1 5 -13 5 -14 0 -19 -2 -12 -5z"/>
</g>
</svg>
